<?xml version="1.0" encoding="UTF-8"?>
<svg width="240px" height="164px" viewBox="0 0 240 164" version="1.1" xmlns="http://www.w3.org/2000/svg" xmlns:xlink="http://www.w3.org/1999/xlink">
    <!-- Generator: Sketch 42 (36781) - http://www.bohemiancoding.com/sketch -->
    <title>Path 2</title>
    <desc>Created with Sketch.</desc>
    <defs></defs>
    <g id="Page-1" stroke="none" stroke-width="1" fill="none" fill-rule="evenodd">
        <g id="red" transform="translate(-249.000000, -613.000000)" stroke="#EA5A82" stroke-width="2" fill="#FDEFEF">
            <path d="M249,775.78 L315.068147,775.78 C315.068147,775.78 309,775.78 309,761.78 L309,698.772064 C309,698.772064 308.921505,687.411398 313,685.78 C317.078495,684.148602 319,670.78 319,670.78 L323,626.78 C323,626.78 320.322138,622.993435 323,619.78 C323.851186,618.758576 322.966069,619.290093 322,618.78 C321.033931,618.269907 318,614 331,614 C343.35977,614 341,617 341,617 C341,617 342,618.78 340,619.78 C338,620.78 341,621 340,624 C339,627 339,627.78 339,627.78 L344,670.78 C344,670.78 344,683.78 349,685.78 C354,687.78 353,698.78 353,698.78 L354,761.78 C354,761.78 353,772.78 350,774.78 C347,776.78 396.043458,774.78 396.043458,774.78 L402,774.78 C402,774.78 397,774.78 397,767.78 C397,760.78 397,686.78 397,686.78 C397,686.78 397,684.78 402,683.78 C407,682.78 440,683.78 440,683.78 C440,683.78 445,683.78 445,686.78 L445,767.78 C445,767.78 446,773.78 443,773.78 C440,773.78 489,773.78 489,773.78" id="Path-2"></path>
        </g>
    </g>
</svg>