<?xml version="1.0" encoding="UTF-8"?>
<svg width="190px" height="130px" viewBox="0 0 190 130" version="1.1" xmlns="http://www.w3.org/2000/svg" xmlns:xlink="http://www.w3.org/1999/xlink">
    <!-- Generator: Sketch 42 (36781) - http://www.bohemiancoding.com/sketch -->
    <title>Group 2</title>
    <desc>Created with Sketch.</desc>
    <defs></defs>
    <g id="Page-1" stroke="none" stroke-width="1" fill="none" fill-rule="evenodd">
        <g id="red" transform="translate(-977.000000, -639.000000)" stroke="#EA5A82" stroke-width="2" fill="#FDEFEF">
            <g id="Group-2" transform="translate(977.000000, 640.000000)">
                <path d="M123,126.583493 L159.576271,126.583493 C159.576271,126.583493 155.355932,126.583493 155.355932,116.705181 C155.355932,106.826868 155.355932,94.9330172 155.355932,94.9330172 L159.576486,94.9330172 L159.576486,66.6244157 L162.390021,66.6244157 L162.390021,52.8254256 C162.390021,52.8254256 168.720339,42.2885588 174.347458,44.9227755 L174.347458,64.0208467 L174.347458,65.9965092 L177.161017,65.9965092 L177.161017,94.3219954 L182.133584,94.3219954 L182.133584,116.046675 C182.133584,116.046675 183.491525,125.266385 179.271186,125.924939 L189.822034,125.924939" id="Path-3"></path>
                <path d="M89.0388917,127.288657 L105.140587,127.288657 C105.140587,127.288657 101.920248,121.258522 101.920248,115.228387 L101.920248,60.9519414 C101.920248,60.9519414 65.4148928,19.5 110.637909,19.5 C155.860926,19.5 120.437197,60.9571756 120.437197,60.9571756 L121.008475,115.228387 C121.008475,115.228387 120.437197,124.273589 118.021943,125.781123 L117.216858,127.288657 L139.773603,127.288657" id="Path-4"></path>
                <path d="M0,127.493442 L26.2435117,127.493442 C26.2435117,127.493442 20.1724018,128.437771 20.1724018,107.662546 L20.1724018,49.1065724 C20.1724018,49.1065724 22.1896419,39.6709038 29.2499825,39.6709038 L32.2758428,39.6709038 L32.2758428,20.7607429 L36.3104019,20.7607429 L36.3104019,16.8900801 L32.1801936,16.8900801 L32.1801936,0.953189055 C32.1801936,0.953189055 69.594786,-1.87954445 71.6120262,6.61941088 L72.6206463,13.2297095 C72.6206463,13.2297095 51.4396245,10.3967244 52.4482446,18.8956797 L52.4482446,20.7843364 L55.6377813,20.7843364 L55.6377813,39.6715255 C55.6377813,39.6715255 66.5689258,41.5595605 66.5689258,47.2255308 L66.5689258,106.718218 C66.5689258,106.718218 65.5603057,127.493442 63.5430655,127.493442 C61.5258253,127.493442 104.945661,127.493442 104.945661,127.493442" id="Path-6"></path>
            </g>
        </g>
    </g>
</svg>