<?xml version="1.0" encoding="UTF-8"?>
<svg width="267px" height="224px" viewBox="0 0 267 224" version="1.1" xmlns="http://www.w3.org/2000/svg" xmlns:xlink="http://www.w3.org/1999/xlink">
    <!-- Generator: Sketch 42 (36781) - http://www.bohemiancoding.com/sketch -->
    <title>Group 4</title>
    <desc>Created with Sketch.</desc>
    <defs>
        <rect id="path-1" x="0" y="0.497777778" width="267" height="223.004444"></rect>
        <mask id="mask-2" maskContentUnits="userSpaceOnUse" maskUnits="objectBoundingBox" x="0" y="0" width="267" height="223.004444" fill="white">
            <use xlink:href="#path-1"></use>
        </mask>
        <path d="M0,146.844444 L76.3459777,146.984606 C76.3459777,146.984606 70.5178748,147.709559 73.4319263,135.02287 L75.2524015,127.773333 L74.1601164,127.048379 L66.1500254,138.647638 C66.1500254,138.647638 63.237265,142.449832 58.1399344,139.735069 C53.0426037,137.020306 38.6602039,135.385347 44.6684177,124.148565 C50.6766315,112.911782 54.1348889,111.099398 54.1348889,111.099398 C54.1348889,111.099398 44.6684177,90.8006948 46.1247979,75.5766673 C46.1247979,75.5766673 43.2120375,76.6640978 39.5710871,82.8262042 C35.9301366,88.9883105 39.206992,75.9391441 39.206992,75.9391441 C39.206992,75.9391441 37.0224217,80.6513431 35.9301366,80.6513431 C34.8378515,80.6513431 33.0173762,72.6768525 43.5761326,69.7770377 L45.7607028,69.0520841 C45.7607028,69.0520841 39.206992,67.6021767 35.9301366,71.2269451 C32.6532812,74.8517136 36.6583267,67.2396998 38.1147069,65.7897925 C39.5710871,64.3398851 32.6532812,67.2396998 32.6532812,67.2396998 C32.6532812,67.2396998 30.1046159,66.5147461 32.6532812,65.0648388 C35.2019465,63.6149314 42.4838474,58.9027324 47.217083,63.9774082 C47.217083,63.9774082 52.6785087,46.5785197 54.863079,46.5785197 C54.863079,46.5785197 25.7354753,58.9027324 21.0022398,38.9665059 C16.2690042,19.0302794 10.0793884,15.405511 39.5710871,6.70606672 C69.0627857,-1.99337756 77.0728767,-0.543470183 79.621542,4.89368249 C79.621542,4.89368249 102.923625,4.53120565 87.631633,22.6550479 C87.631633,22.6550479 113.482381,22.6550479 92.3648686,45.1286123 L92.7289637,46.5785197 C92.7289637,46.5785197 113.118286,45.4910891 95.277629,66.1522693 L96.0058191,68.3271304 C96.0058191,68.3271304 118.215617,62.5275008 103.651815,86.0884958 C103.651815,86.0884958 115.302856,67.9646535 123.312947,89.3507874 C123.312947,89.3507874 120.400187,70.8644683 134.963989,81.0138199 C134.963989,81.0138199 135.328084,64.7023619 142.609985,78.1140052 C149.891886,91.5256485 109.113241,134.297916 102.195435,129.22324 C102.195435,129.22324 103.28772,142.634884 99.6467695,146.984606 L145,146.984606 L163.000551,146.984606" id="path-3"></path>
        <filter x="-50%" y="-50%" width="200%" height="200%" filterUnits="objectBoundingBox" id="filter-4">
            <feMorphology radius="1" operator="dilate" in="SourceAlpha" result="shadowSpreadOuter1"></feMorphology>
            <feOffset dx="5" dy="1" in="shadowSpreadOuter1" result="shadowOffsetOuter1"></feOffset>
            <feGaussianBlur stdDeviation="2" in="shadowOffsetOuter1" result="shadowBlurOuter1"></feGaussianBlur>
            <feComposite in="shadowBlurOuter1" in2="SourceAlpha" operator="out" result="shadowBlurOuter1"></feComposite>
            <feColorMatrix values="0 0 0 0 0   0 0 0 0 0   0 0 0 0 0  0 0 0 0.5 0" type="matrix" in="shadowBlurOuter1"></feColorMatrix>
        </filter>
        <path d="M159.565648,146.989788 L176.015292,146.989788 C176.015292,146.989788 174.147885,147.222074 175.081589,143.157079 L175.664895,140.834224 L175.314911,140.601939 L172.748364,144.318506 C172.748364,144.318506 171.815075,145.536783 170.181818,144.666934 C168.548561,143.797085 163.940236,143.273221 165.865353,139.672797 C167.79047,136.072373 168.898544,135.491659 168.898544,135.491659 C168.898544,135.491659 165.865353,128.987667 166.331998,124.109673 C166.331998,124.109673 165.398708,124.458101 164.232096,126.432528 C163.065484,128.406954 164.115435,124.225816 164.115435,124.225816 C164.115435,124.225816 163.415468,125.735671 163.065484,125.735671 C162.7155,125.735671 162.132194,123.180531 165.515369,122.25139 L166.215337,122.019104 C166.215337,122.019104 164.115435,121.554533 163.065484,122.715961 C162.015533,123.877388 163.298806,121.438391 163.765451,120.97382 C164.232096,120.509249 162.015533,121.438391 162.015533,121.438391 C162.015533,121.438391 161.198905,121.206105 162.015533,120.741534 C162.832162,120.276964 165.165386,118.767108 166.681981,120.393106 C166.681981,120.393106 168.4319,114.818256 169.131867,114.818256 C169.131867,114.818256 159.79897,118.767108 158.282374,112.379259 C156.765779,105.991409 154.782538,104.829982 164.232096,102.042557 C173.681654,99.2551319 176.248201,99.7197027 177.064829,101.461843 C177.064829,101.461843 184.531147,101.345701 179.631376,107.152837 C179.631376,107.152837 187.914322,107.152837 181.147972,114.353685 L181.264633,114.818256 C181.264633,114.818256 187.797661,114.469828 182.081261,121.089963 L182.314584,121.786819 C182.314584,121.786819 190.130885,122.599818 194.797333,125.851814 C194.797333,125.851814 194.913994,120.625392 197.247219,124.922672 C199.580443,129.219953 186.514387,142.924793 184.297824,141.298795 C184.297824,141.298795 184.647808,145.596076 183.481196,146.989788 L202.963618,146.989788" id="path-5"></path>
        <filter x="-50%" y="-50%" width="200%" height="200%" filterUnits="objectBoundingBox" id="filter-6">
            <feMorphology radius="1" operator="dilate" in="SourceAlpha" result="shadowSpreadOuter1"></feMorphology>
            <feOffset dx="5" dy="1" in="shadowSpreadOuter1" result="shadowOffsetOuter1"></feOffset>
            <feGaussianBlur stdDeviation="2" in="shadowOffsetOuter1" result="shadowBlurOuter1"></feGaussianBlur>
            <feComposite in="shadowBlurOuter1" in2="SourceAlpha" operator="out" result="shadowBlurOuter1"></feComposite>
            <feColorMatrix values="0 0 0 0 0   0 0 0 0 0   0 0 0 0 0  0 0 0 0.5 0" type="matrix" in="shadowBlurOuter1"></feColorMatrix>
        </filter>
        <path d="M202.565648,146.989788 L219.015292,146.989788 C219.015292,146.989788 217.147885,147.222074 218.081589,143.157079 L218.664895,140.834224 L218.314911,140.601939 L215.748364,144.318506 C215.748364,144.318506 214.815075,145.536783 213.181818,144.666934 C211.548561,143.797085 206.940236,143.273221 208.865353,139.672797 C210.79047,136.072373 211.898544,135.491659 211.898544,135.491659 C211.898544,135.491659 208.865353,128.987667 209.331998,124.109673 C209.331998,124.109673 208.398708,124.458101 207.232096,126.432528 C206.065484,128.406954 207.115435,124.225816 207.115435,124.225816 C207.115435,124.225816 206.415468,125.735671 206.065484,125.735671 C205.7155,125.735671 205.132194,123.180531 208.515369,122.25139 L209.215337,122.019104 C209.215337,122.019104 207.115435,121.554533 206.065484,122.715961 C205.015533,123.877388 206.298806,121.438391 206.765451,120.97382 C207.232096,120.509249 205.015533,121.438391 205.015533,121.438391 C205.015533,121.438391 204.198905,121.206105 205.015533,120.741534 C205.832162,120.276964 208.165386,118.767108 209.681981,120.393106 C209.681981,120.393106 211.4319,114.818256 212.131867,114.818256 C212.131867,114.818256 202.79897,118.767108 201.282374,112.379259 C199.765779,105.991409 197.782538,104.829982 207.232096,102.042557 C216.681654,99.2551319 219.248201,99.7197027 220.064829,101.461843 C220.064829,101.461843 227.531147,101.345701 222.631376,107.152837 C222.631376,107.152837 230.914322,107.152837 224.147972,114.353685 L224.264633,114.818256 C224.264633,114.818256 230.797661,114.469828 225.081261,121.089963 L225.314584,121.786819 C225.314584,121.786819 233.130885,122.599818 237.797333,125.851814 C237.797333,125.851814 237.913994,120.625392 240.247219,124.922672 C242.580443,129.219953 229.514387,142.924793 227.297824,141.298795 C227.297824,141.298795 227.647808,145.596076 226.481196,146.989788 L245.963618,146.989788" id="path-7"></path>
        <filter x="-50%" y="-50%" width="200%" height="200%" filterUnits="objectBoundingBox" id="filter-8">
            <feMorphology radius="1" operator="dilate" in="SourceAlpha" result="shadowSpreadOuter1"></feMorphology>
            <feOffset dx="5" dy="1" in="shadowSpreadOuter1" result="shadowOffsetOuter1"></feOffset>
            <feGaussianBlur stdDeviation="2" in="shadowOffsetOuter1" result="shadowBlurOuter1"></feGaussianBlur>
            <feComposite in="shadowBlurOuter1" in2="SourceAlpha" operator="out" result="shadowBlurOuter1"></feComposite>
            <feColorMatrix values="0 0 0 0 0   0 0 0 0 0   0 0 0 0 0  0 0 0 0.5 0" type="matrix" in="shadowBlurOuter1"></feColorMatrix>
        </filter>
    </defs>
    <g id="Page-1" stroke="none" stroke-width="1" fill="none" fill-rule="evenodd">
        <g id="red" transform="translate(-588.000000, -582.000000)">
            <g id="Group-4" transform="translate(588.000000, 582.000000)">
                <use id="Rectangle-3-Copy" stroke="#EA5A82" mask="url(#mask-2)" stroke-width="2" fill="#FFFFFF" xlink:href="#path-1"></use>
                <g id="Group" transform="translate(11.000000, 37.831111)">
                    <g id="Path-5">
                        <use fill="black" fill-opacity="1" filter="url(#filter-4)" xlink:href="#path-3"></use>
                        <use stroke="#EA5A82" stroke-width="2" fill="#FDEFEF" fill-rule="evenodd" xlink:href="#path-3"></use>
                    </g>
                    <g id="Path-5-Copy">
                        <use fill="black" fill-opacity="1" filter="url(#filter-6)" xlink:href="#path-5"></use>
                        <use stroke="#EA5A82" stroke-width="2" fill="#FDEFEF" fill-rule="evenodd" xlink:href="#path-5"></use>
                    </g>
                    <g id="Path-5-Copy-2">
                        <use fill="black" fill-opacity="1" filter="url(#filter-8)" xlink:href="#path-7"></use>
                        <use stroke="#EA5A82" stroke-width="2" fill="#FDEFEF" fill-rule="evenodd" xlink:href="#path-7"></use>
                    </g>
                </g>
            </g>
        </g>
    </g>
</svg>