<?xml version="1.0" encoding="UTF-8"?>
<svg width="246px" height="150px" viewBox="0 0 246 150" version="1.1" xmlns="http://www.w3.org/2000/svg" xmlns:xlink="http://www.w3.org/1999/xlink">
    <!-- Generator: Sketch 42 (36781) - http://www.bohemiancoding.com/sketch -->
    <title>Group</title>
    <desc>Created with Sketch.</desc>
    <defs></defs>
    <g id="Page-1" stroke="none" stroke-width="1" fill="none" fill-rule="evenodd">
        <g id="red" transform="translate(-599.000000, -619.000000)" stroke="#EA5A82" stroke-width="2" fill="#FDEFEF">
            <g id="Group" transform="translate(599.000000, 620.000000)">
                <path d="M0,147.5 L76.3459777,147.640787 C76.3459777,147.640787 70.5178748,148.368977 73.4319263,135.625651 L75.2524015,128.34375 L74.1601164,127.61556 L66.1500254,139.266601 C66.1500254,139.266601 63.237265,143.085769 58.1399344,140.358886 C53.0426037,137.632003 38.6602039,135.989746 44.6684177,124.702799 C50.6766315,113.415853 54.1348889,111.595378 54.1348889,111.595378 C54.1348889,111.595378 44.6684177,91.206055 46.1247979,75.9140631 C46.1247979,75.9140631 43.2120375,77.0063482 39.5710871,83.195964 C35.9301366,89.3855798 39.206992,76.2781582 39.206992,76.2781582 C39.206992,76.2781582 37.0224217,81.0113937 35.9301366,81.0113937 C34.8378515,81.0113937 33.0173762,73.0013027 43.5761326,70.0885424 L45.7607028,69.3603523 C45.7607028,69.3603523 39.206992,67.9039721 35.9301366,71.5449226 C32.6532812,75.185873 36.6583267,67.5398771 38.1147069,66.0834969 C39.5710871,64.6271167 32.6532812,67.5398771 32.6532812,67.5398771 C32.6532812,67.5398771 30.1046159,66.811687 32.6532812,65.3553068 C35.2019465,63.8989266 42.4838474,59.165691 47.217083,64.2630217 C47.217083,64.2630217 52.6785087,46.7864595 54.863079,46.7864595 C54.863079,46.7864595 25.7354753,59.165691 21.0022398,39.1404635 C16.2690042,19.1152361 10.0793884,15.4742856 39.5710871,6.73600452 C69.0627857,-2.00227657 77.0728767,-0.545896389 79.621542,4.91552929 C79.621542,4.91552929 102.923625,4.55143424 87.631633,22.7561865 C87.631633,22.7561865 113.482381,22.7561865 92.3648686,45.3300793 L92.7289637,46.7864595 C92.7289637,46.7864595 113.118286,45.6941744 95.277629,66.4475919 L96.0058191,68.6321622 C96.0058191,68.6321622 118.215617,62.8066415 103.651815,86.4728194 C103.651815,86.4728194 115.302856,68.2680672 123.312947,89.7496748 C123.312947,89.7496748 120.400187,71.1808275 134.963989,81.3754888 C134.963989,81.3754888 135.328084,64.9912117 142.609985,78.4627284 C149.891886,91.9342451 109.113241,134.89746 102.195435,129.80013 C102.195435,129.80013 103.28772,143.271646 99.6467695,147.640787 L145,147.640787 L163.000551,147.640787" id="Path-5"></path>
                <path d="M159.565648,147.645993 L176.015292,147.645993 C176.015292,147.645993 174.147885,147.879315 175.081589,143.796173 L175.664895,141.462949 L175.314911,141.229626 L172.748364,144.962785 C172.748364,144.962785 171.815075,146.1865 170.181818,145.312769 C168.548561,144.439037 163.940236,143.912834 165.865353,140.296336 C167.79047,136.679839 168.898544,136.096533 168.898544,136.096533 C168.898544,136.096533 165.865353,129.563505 166.331998,124.663734 C166.331998,124.663734 165.398708,125.013718 164.232096,126.996958 C163.065484,128.980199 164.115435,124.780395 164.115435,124.780395 C164.115435,124.780395 163.415468,126.296991 163.065484,126.296991 C162.7155,126.296991 162.132194,123.730445 165.515369,122.797155 L166.215337,122.563832 C166.215337,122.563832 164.115435,122.097188 163.065484,123.2638 C162.015533,124.430412 163.298806,121.980526 163.765451,121.513882 C164.232096,121.047237 162.015533,121.980526 162.015533,121.980526 C162.015533,121.980526 161.198905,121.747204 162.015533,121.280559 C162.832162,120.813914 165.165386,119.297319 166.681981,120.930575 C166.681981,120.930575 168.4319,115.330837 169.131867,115.330837 C169.131867,115.330837 159.79897,119.297319 158.282374,112.880952 C156.765779,106.464585 154.782538,105.297973 164.232096,102.498104 C173.681654,99.6982351 176.248201,100.16488 177.064829,101.914798 C177.064829,101.914798 184.531147,101.798137 179.631376,107.631197 C179.631376,107.631197 187.914322,107.631197 181.147972,114.864193 L181.264633,115.330837 C181.264633,115.330837 187.797661,114.980854 182.081261,121.630543 L182.314584,122.33051 C182.314584,122.33051 190.130885,123.147138 194.797333,126.413652 C194.797333,126.413652 194.913994,121.163898 197.247219,125.480363 C199.580443,129.796827 186.514387,143.56285 184.297824,141.929593 C184.297824,141.929593 184.647808,146.246058 183.481196,147.645993 L202.963618,147.645993" id="Path-5-Copy"></path>
                <path d="M202.565648,147.645993 L219.015292,147.645993 C219.015292,147.645993 217.147885,147.879315 218.081589,143.796173 L218.664895,141.462949 L218.314911,141.229626 L215.748364,144.962785 C215.748364,144.962785 214.815075,146.1865 213.181818,145.312769 C211.548561,144.439037 206.940236,143.912834 208.865353,140.296336 C210.79047,136.679839 211.898544,136.096533 211.898544,136.096533 C211.898544,136.096533 208.865353,129.563505 209.331998,124.663734 C209.331998,124.663734 208.398708,125.013718 207.232096,126.996958 C206.065484,128.980199 207.115435,124.780395 207.115435,124.780395 C207.115435,124.780395 206.415468,126.296991 206.065484,126.296991 C205.7155,126.296991 205.132194,123.730445 208.515369,122.797155 L209.215337,122.563832 C209.215337,122.563832 207.115435,122.097188 206.065484,123.2638 C205.015533,124.430412 206.298806,121.980526 206.765451,121.513882 C207.232096,121.047237 205.015533,121.980526 205.015533,121.980526 C205.015533,121.980526 204.198905,121.747204 205.015533,121.280559 C205.832162,120.813914 208.165386,119.297319 209.681981,120.930575 C209.681981,120.930575 211.4319,115.330837 212.131867,115.330837 C212.131867,115.330837 202.79897,119.297319 201.282374,112.880952 C199.765779,106.464585 197.782538,105.297973 207.232096,102.498104 C216.681654,99.6982351 219.248201,100.16488 220.064829,101.914798 C220.064829,101.914798 227.531147,101.798137 222.631376,107.631197 C222.631376,107.631197 230.914322,107.631197 224.147972,114.864193 L224.264633,115.330837 C224.264633,115.330837 230.797661,114.980854 225.081261,121.630543 L225.314584,122.33051 C225.314584,122.33051 233.130885,123.147138 237.797333,126.413652 C237.797333,126.413652 237.913994,121.163898 240.247219,125.480363 C242.580443,129.796827 229.514387,143.56285 227.297824,141.929593 C227.297824,141.929593 227.647808,146.246058 226.481196,147.645993 L245.963618,147.645993" id="Path-5-Copy-2"></path>
            </g>
        </g>
    </g>
</svg>